<?xml version="1.0" standalone="no"?>
<!DOCTYPE svg PUBLIC "-//W3C//DTD SVG 20010904//EN"
 "http://www.w3.org/TR/2001/REC-SVG-20010904/DTD/svg10.dtd">
<svg version="1.0" xmlns="http://www.w3.org/2000/svg"
 width="225.000000pt" height="225.000000pt" viewBox="0 0 225.000000 225.000000"
 preserveAspectRatio="xMidYMid meet">

<g transform="translate(0.000000,225.000000) scale(0.100000,-0.100000)"
fill="#000000" stroke="none">
<path d="M1042 1812 c-89 -32 -154 -109 -172 -201 -21 -109 31 -219 130 -275
48 -27 64 -31 130 -31 88 1 136 21 192 83 51 57 72 118 66 195 -3 35 -13 77
-21 94 -63 121 -202 178 -325 135z"/>
<path d="M651 1680 c-91 -22 -171 -125 -171 -219 0 -65 39 -143 89 -179 l41
-30 73 72 73 71 -14 40 c-14 36 -20 176 -10 230 4 23 -25 29 -81 15z"/>
<path d="M1528 1597 c3 -68 0 -108 -12 -149 l-16 -56 70 -70 69 -69 29 17
c165 101 131 350 -55 406 -91 27 -91 27 -85 -79z"/>
<path d="M823 1261 c-22 -16 -54 -46 -72 -67 -75 -91 -133 -263 -107 -316 l12
-23 469 0 469 0 12 23 c26 53 -29 219 -103 310 -45 55 -109 102 -138 102 -13
0 -52 -14 -88 -31 -85 -39 -155 -47 -233 -24 -32 9 -73 25 -90 36 -44 27 -84
24 -131 -10z"/>
<path d="M443 1200 c-73 -54 -132 -151 -152 -252 -20 -93 0 -108 140 -108 l69
0 -6 43 c-7 55 18 175 55 252 l29 62 -28 17 c-40 23 -60 20 -107 -14z"/>
<path d="M1703 1213 l-32 -16 24 -46 c36 -73 58 -159 59 -240 l1 -73 94 4
c110 5 126 16 115 83 -18 110 -80 221 -157 276 -45 33 -59 34 -104 12z"/>
<path d="M230 693 c-54 -20 -97 -99 -86 -159 9 -43 63 -99 106 -108 42 -8
1708 -8 1750 0 43 9 97 65 106 108 8 46 -10 96 -47 132 l-30 29 -892 2 c-491
1 -899 -1 -907 -4z"/>
</g>
</svg>
