<?xml version="1.0" standalone="no"?>
<!DOCTYPE svg PUBLIC "-//W3C//DTD SVG 20010904//EN"
 "http://www.w3.org/TR/2001/REC-SVG-20010904/DTD/svg10.dtd">
<svg version="1.0" xmlns="http://www.w3.org/2000/svg"
 width="225.000000pt" height="225.000000pt" viewBox="0 0 225.000000 225.000000"
 preserveAspectRatio="xMidYMid meet">

<g transform="translate(0.000000,225.000000) scale(0.100000,-0.100000)"
fill="#000000" stroke="none">
<path d="M1073 2236 c-74 -33 -84 -133 -21 -202 14 -16 18 -33 16 -65 l-3 -44
-57 -7 c-427 -53 -771 -408 -806 -832 l-7 -80 -39 -8 c-115 -24 -178 -153
-127 -263 38 -84 88 -105 250 -105 l120 0 -6 -49 c-6 -57 9 -109 44 -152 52
-61 63 -64 351 -69 l264 -5 24 -28 c23 -27 24 -34 24 -178 l0 -149 381 0 380
0 -3 314 -3 315 136 3 c132 3 137 4 173 32 45 34 76 95 76 151 0 85 -65 169
-140 181 -42 7 -50 20 -50 90 0 54 -41 214 -73 286 -129 290 -420 507 -733
546 l-59 7 -3 44 c-3 36 1 48 23 71 95 99 -7 252 -132 196z m242 -451 c145
-38 252 -97 362 -199 150 -139 236 -313 258 -523 l7 -63 -811 0 -811 0 0 53
c1 171 112 403 258 537 118 109 277 186 437 210 78 12 225 4 300 -15z m787
-922 c22 -20 23 -70 1 -95 -15 -17 -59 -18 -976 -18 -880 0 -962 1 -979 17
-22 20 -23 70 -1 95 15 17 59 18 976 18 880 0 962 -1 979 -17z m-393 -259 l31
-26 0 -229 0 -229 -259 0 -259 0 -4 109 c-3 103 -5 112 -33 152 -57 81 -65 83
-362 89 -260 5 -262 5 -287 29 -15 14 -26 35 -26 51 0 26 30 62 60 73 8 3 261
6 562 6 l546 1 31 -26z"/>
<path d="M943 1670 c-185 -48 -349 -184 -439 -363 -24 -49 -44 -99 -44 -111 0
-32 32 -58 67 -54 24 3 33 14 63 73 67 135 147 224 255 286 59 34 164 69 209
69 44 0 76 25 76 59 0 62 -58 75 -187 41z"/>
</g>
</svg>
