<?xml version="1.0" standalone="no"?>
<!DOCTYPE svg PUBLIC "-//W3C//DTD SVG 20010904//EN"
 "http://www.w3.org/TR/2001/REC-SVG-20010904/DTD/svg10.dtd">
<svg version="1.0" xmlns="http://www.w3.org/2000/svg"
 width="512.000000pt" height="512.000000pt" viewBox="0 0 512.000000 512.000000"
 preserveAspectRatio="xMidYMid meet">

<g transform="translate(0.000000,512.000000) scale(0.100000,-0.100000)"
fill="#000000" stroke="none">
<path d="M2285 3810 c-44 -10 -52 -15 -373 -226 -268 -177 -294 -197 -312
-236 -25 -54 -25 -102 -1 -154 31 -69 106 -111 180 -101 22 2 137 59 276 135
233 128 239 131 261 114 12 -9 86 -71 163 -137 106 -91 137 -123 128 -131 -7
-7 -214 -139 -462 -294 -247 -155 -452 -284 -454 -286 -2 -2 30 -20 71 -39 66
-32 85 -36 156 -37 89 -1 75 -6 282 105 117 63 226 89 366 90 174 0 282 -32
452 -135 l87 -53 105 0 105 0 113 53 c63 30 129 56 148 59 19 3 34 8 34 10 0
3 -71 122 -157 266 -102 168 -179 282 -216 323 -58 62 -780 633 -834 658 -38
19 -82 24 -118 16z"/>
<path d="M3857 3559 c-106 -25 -218 -107 -274 -200 -160 -268 3 -611 313 -659
213 -33 427 108 484 320 18 68 14 186 -9 252 -35 101 -121 202 -210 247 -89
46 -212 62 -304 40z"/>
<path d="M2490 2479 c-95 -11 -180 -41 -280 -98 -109 -64 -151 -78 -243 -87
-91 -8 -174 12 -274 66 -125 67 -212 91 -338 92 -162 2 -236 -21 -405 -128
-59 -37 -106 -58 -155 -70 -38 -9 -86 -20 -106 -25 -43 -11 -64 -46 -49 -83
15 -40 44 -49 135 -42 99 7 167 27 265 76 102 51 170 70 255 70 102 0 176 -23
290 -90 140 -82 204 -102 345 -108 150 -6 206 8 380 95 l135 68 121 0 121 0
124 -62 c169 -84 207 -95 325 -101 147 -6 225 10 341 70 54 28 129 67 167 87
69 36 71 36 190 36 l121 0 123 -58 c67 -32 153 -65 190 -72 80 -17 166 -19
193 -4 27 14 38 48 27 81 -10 29 -38 41 -118 53 -58 8 -113 33 -219 99 -125
79 -219 108 -352 108 -138 1 -189 -12 -334 -82 -139 -67 -215 -85 -319 -75
-61 7 -90 17 -212 81 -183 95 -292 120 -444 103z"/>
<path d="M2443 1979 c-73 -12 -142 -40 -242 -98 -117 -67 -181 -84 -296 -79
-89 4 -96 6 -216 65 -166 83 -223 97 -369 90 -154 -7 -223 -31 -371 -127 -75
-48 -146 -76 -221 -85 -63 -8 -91 -29 -91 -70 0 -49 28 -65 112 -65 100 0 172
19 302 81 133 62 202 76 308 62 82 -11 122 -27 276 -112 111 -62 200 -85 325
-85 130 1 184 15 336 90 223 110 316 112 522 9 164 -82 219 -97 352 -98 133
-2 220 20 326 79 156 88 214 112 295 119 101 9 166 -5 292 -65 125 -59 202
-80 299 -80 83 0 111 16 111 65 0 41 -29 63 -92 71 -79 9 -135 33 -240 99
-128 81 -201 106 -333 112 -147 8 -206 -6 -373 -85 l-140 -67 -116 0 c-113 0
-117 1 -185 36 -204 106 -234 119 -306 133 -83 17 -182 19 -265 5z"/>
</g>
</svg>
