<?xml version="1.0" standalone="no"?>
<!DOCTYPE svg PUBLIC "-//W3C//DTD SVG 20010904//EN"
 "http://www.w3.org/TR/2001/REC-SVG-20010904/DTD/svg10.dtd">
<svg version="1.0" xmlns="http://www.w3.org/2000/svg"
 width="123.000000pt" height="123.000000pt" viewBox="0 0 123.000000 123.000000"
 preserveAspectRatio="xMidYMid meet">

<g transform="translate(0.000000,123.000000) scale(0.100000,-0.100000)"
fill="#000000" stroke="none">
<path d="M487 1070 c-78 -14 -186 -49 -252 -82 -73 -37 -199 -129 -221 -163
-21 -31 -12 -69 21 -91 32 -21 54 -13 121 46 66 58 163 110 264 142 107 33
283 33 390 0 101 -32 198 -84 264 -142 31 -27 64 -51 75 -55 42 -13 88 36 77
81 -8 32 -139 135 -227 179 -110 56 -228 86 -354 90 -60 2 -132 0 -158 -5z"/>
<path d="M505 813 c-144 -32 -325 -145 -325 -202 0 -27 43 -71 69 -71 11 0 41
19 68 42 26 23 77 55 113 72 61 28 73 30 180 31 138 0 197 -19 292 -96 64 -51
77 -56 108 -39 32 17 43 48 30 78 -25 59 -167 147 -285 177 -55 14 -203 19
-250 8z"/>
<path d="M502 551 c-95 -33 -162 -106 -136 -149 6 -9 22 -24 36 -31 24 -14 29
-13 83 25 54 37 62 39 130 39 68 0 76 -2 130 -39 54 -38 59 -39 83 -25 60 34
54 82 -16 134 -87 65 -206 82 -310 46z"/>
<path d="M555 295 c-37 -36 -34 -86 6 -119 39 -33 69 -33 108 0 61 51 26 144
-54 144 -25 0 -44 -8 -60 -25z"/>
</g>
</svg>
